<svg width="23" height="23" viewBox="0 0 23 23" fill="none" xmlns="http://www.w3.org/2000/svg">
<path d="M14.9021 12.4583C15.6209 12.4583 16.2534 12.0654 16.5792 11.4713L20.01 5.25167C20.3646 4.61917 19.9046 3.83333 19.1763 3.83333H4.99296L4.09212 1.91667H0.958374V3.83333H2.87504L6.32504 11.1071L5.03129 13.4454C4.33171 14.7296 5.25171 16.2917 6.70837 16.2917H18.2084V14.375H6.70837L7.76254 12.4583H14.9021ZM5.90337 5.75H17.5471L14.9021 10.5417H8.17462L5.90337 5.75ZM6.70837 17.25C5.65421 17.25 4.80129 18.1125 4.80129 19.1667C4.80129 20.2208 5.65421 21.0833 6.70837 21.0833C7.76254 21.0833 8.62504 20.2208 8.62504 19.1667C8.62504 18.1125 7.76254 17.25 6.70837 17.25ZM16.2917 17.25C15.2375 17.25 14.3846 18.1125 14.3846 19.1667C14.3846 20.2208 15.2375 21.0833 16.2917 21.0833C17.3459 21.0833 18.2084 20.2208 18.2084 19.1667C18.2084 18.1125 17.3459 17.25 16.2917 17.25Z" fill="white"/>
</svg>
